#!OML:ASF H:\Terrain\Walking\May29\JustinRory\Justin.ASF
:FULLY-SPECIFIED
:DEGREES
222
root 12.157 10.0456 7.58431 -42.4315 -58.3272 9.5896
lowerback 45.0775 0.330588 -4.58577
upperback 17.351 -3.90756 -5.34484
thorax -1.538 -2.75123 -1.88814
lowerneck 5.23928 -15.5145 -20.0907
upperneck 11.1364 -24.7147 23.12
head 8.10605 -12.3781 8.51938
rclavicle 9.14409e-015 -1.59028e-014
rhumerus -28.2637 13.1978 -103.342
rradius 76.9775
rwrist 23.4889
rhand -28.6651 38.3999
rfingers 7.12502
rthumb -2.02823 8.42978
lclavicle 9.14409e-015 -1.59028e-014
lhumerus -46.1011 -2.75646 88.8499
lradius 67.4347
lwrist 29.8006
lhand -22.6297 52.304
lfingers 7.12502
lthumb 3.80073 82.2499
rfemur -56.4529 -8.01786 -1.36316
rtibia 97.4861
rfoot 5.75633 23.0524
rtoes -1.65763
lfemur -50.2774 9.06848 -2.57197
ltibia 87.9037
lfoot -0.917623 -21.2642
ltoes -17.8889
223
root 12.1575 10.0443 7.57171 -41.6061 -58.873 9.04594
lowerback 44.6349 -0.22276 -3.98749
upperback 17.1437 -4.29757 -5.56953
thorax -1.73519 -2.88035 -2.27156
lowerneck 5.49396 -15.3117 -20.338
upperneck 11.4051 -24.5397 23.0777
head 8.13324 -12.3223 8.60363
rclavicle -3.53837e-014 -9.54166e-015
rhumerus -29.4109 14.1198 -103.803
rradius 77.4879
rwrist 23.6677
rhand -28.365 37.6502
rfingers 7.12502
rthumb -1.73841 7.6775
lclavicle -3.53837e-014 -9.54166e-015
lhumerus -46.6353 -2.47196 88.4189
lradius 67.5782
lwrist 30.1347
lhand -22.0813 52.227
lfingers 7.12502
lthumb 4.33022 82.1627
rfemur -56.8086 -7.74859 -0.887058
rtibia 97.1656
rfoot 5.60265 23.7361
rtoes 0.723685
lfemur -50.659 9.62468 -1.88105
ltibia 87.8959
lfoot -1.54018 -22.0954
ltoes -25.3252
224
root 12.1614 10.0451 7.55143 -42.2718 -58.5946 9.54083
lowerback 44.0996 -0.49425 -4.04808
upperback 17.6235 -4.65088 -5.87886
thorax -1.09673 -3.07696 -2.47667
lowerneck 5.19885 -15.4227 -20.2767
upperneck 11.5018 -24.6838 23.1296
head 8.25202 -12.3645 8.5557
rclavicle -4.53229e-014 -5.40694e-014
rhumerus -29.7926 14.6909 -104.095
rradius 78.1196
rwrist 23.6779
rhand -28.2043 37.1298
rfingers 7.12502
rthumb -1.58321 7.15597
lclavicle -4.53229e-014 -5.40694e-014
lhumerus -46.3041 -2.7505 88.0627
lradius 67.597
lwrist 30.8561
lhand -21.9526 52.2602
lfingers 7.12502
lthumb 4.45454 82.1933
rfemur -56.297 -7.78246 -1.55961
rtibia 96.7756
rfoot 5.83239 24.1099
rtoes 5.44444
lfemur -50.3007 9.18616 -2.20691
ltibia 87.7453
lfoot -1.14004 -21.6794
ltoes -23.4949
225
root 12.1815 10.0673 7.52528 -43.0735 -58.5522 10.0412
lowerback 44.0265 -0.75594 -4.04649
upperback 17.7927 -5.00298 -6.18984
thorax -0.932059 -3.25058 -2.68859
lowerneck 5.12164 -15.499 -19.8244
upperneck 11.6616 -24.6711 22.4982
head 8.15556 -12.3437 8.27171
rclavicle 5.725e-014 -1.59028e-015
rhumerus -30.6761 15.1681 -104.406
rradius 78.6745
rwrist 23.4342
rhand -28.1878 37.4999
rfingers 7.12502
rthumb -1.56729 7.52595
lclavicle 5.725e-014 -1.59028e-015
lhumerus -46.4209 -2.93004 87.6894
lradius 67.7407
lwrist 31.5457
lhand -22.4637 52.7677
lfingers 7.12502
lthumb 3.96103 82.7106
rfemur -55.5506 -7.65076 -1.93881
rtibia 96.2407
rfoot 5.63168 23.8762
rtoes 7.8364
lfemur -49.6466 9.02153 -2.41022
ltibia 87.4735
lfoot -0.49765 -20.8607
ltoes -16.2911
226
root 12.1797 10.0591 7.50437 -43.7704 -58.5066 10.6168
lowerback 43.9663 -0.949355 -4.55939
upperback 17.7096 -5.44921 -6.21125
thorax -0.979541 -3.50557 -2.28986
lowerneck 5.30587 -15.2324 -20.2572
upperneck 11.6438 -24.2312 22.0498
head 8.00358 -12.1698 8.28048
rclavicle 9.62118e-014 4.92986e-014
rhumerus -31.7147 16.4707 -104.19
rradius 79.081
rwrist 22.6898
rhand -27.9146 38.2373
rfingers 7.12502
rthumb -1.30348 8.26152
lclavicle 9.62118e-014 4.92986e-014
lhumerus -46.7982 -2.10033 87.5629
lradius 67.8053
lwrist 31.7531
lhand -22.5144 53.0817
lfingers 7.12502
lthumb 3.91204 83.0255
rfemur -55.4948 -7.78953 -2.17248
rtibia 96.0452
rfoot 4.0879 23.3329
rtoes 5.80453
lfemur -49.3953 9.30364 -2.60081
ltibia 87.3708
lfoot -0.0682319 -20.687
ltoes -14.8924
227
root 12.1749 10.0428 7.47866 -44.1599 -58.3557 10.8953
lowerback 43.8313 -1.16202 -5.11379
upperback 17.6568 -5.91311 -6.08947
thorax -0.94432 -3.7812 -1.72092
lowerneck 5.45034 -14.8885 -21.0642
upperneck 11.5935 -23.7692 22.009
head 7.9524 -11.9895 8.48048
rclavicle 2.62396e-014 -1.51076e-014
rhumerus -32.5239 17.8461 -103.72
rradius 79.4835
rwrist 21.7123
rhand -27.4587 39.0017
rfingers 7.12502
rthumb -0.863117 9.02368
lclavicle 2.62396e-014 -1.51076e-014
lhumerus -47.1401 -1.15602 87.577
lradius 67.8136
lwrist 31.8511
lhand -22.2947 52.9252
lfingers 7.12502
lthumb 4.1242 82.865
rfemur -54.9552 -8.12445 -2.15017
rtibia 95.5843
rfoot 1.78267 22.2811
rtoes 3.11776
lfemur -49.3957 9.45373 -2.75658
ltibia 87.3199
lfoot 0.563594 -20.8781
ltoes -18.2864
228
root 12.1813 10.0394 7.45847 -44.0566 -58.5339 10.6547
lowerback 43.784 -1.52528 -4.98441
upperback 17.5469 -6.29941 -6.09097
thorax -1.074 -3.95961 -1.63837
lowerneck 5.46674 -14.7601 -21.3006
upperneck 11.8015 -23.5977 21.7671
head 7.97168 -11.9197 8.46599
rclavicle -4.01545e-014 2.38542e-015
rhumerus -33.484 18.6897 -103.681
rradius 80.0704
rwrist 20.6634
rhand -27.5506 39.4983
rfingers 7.12502
rthumb -0.951887 9.52069
lclavicle -4.01545e-014 2.38542e-015
lhumerus -47.568 -0.786491 87.4926
lradius 67.8272
lwrist 32.0788
lhand -22.6262 52.7782
lfingers 7.12502
lthumb 3.80406 82.724
rfemur -54.34 -8.26721 -1.77442
rtibia 95.0247
rfoot -0.0486611 20.7024
rtoes 1.73277
lfemur -49.3174 9.70074 -2.49897
ltibia 87.2638
lfoot 0.194395 -21.4667
ltoes -24.6596
229
root 12.1804 10.0322 7.43923 -44.5337 -58.4875 10.7731
lowerback 43.914 -1.71173 -5.04682
upperback 17.5592 -6.57091 -6.06968
thorax -1.08726 -4.10539 -1.48359
lowerneck 5.42731 -14.8309 -21.3883
upperneck 11.8952 -23.6479 21.4414
head 7.98576 -11.9466 8.35007
rclavicle -1.98785e-015 -6.75868e-014
rhumerus -34.2778 19.1978 -103.583
rradius 80.5673
rwrist 19.57
rhand -27.7941 39.8993
rfingers 7.12502
rthumb -1.18701 9.92283
lclavicle -1.98785e-015 -6.75868e-014
lhumerus -47.7969 -0.679455 87.5513
lradius 67.8218
lwrist 32.2698
lhand -22.8145 53.0639
lfingers 7.12502
lthumb 3.62224 83.0129
rfemur -53.301 -8.39277 -1.79284
rtibia 94.3888
rfoot -1.38934 19.1907
rtoes -0.938359
lfemur -48.8936 9.82038 -2.54616
ltibia 87.1741
lfoot -0.620054 -21.6824
ltoes -28.0785
230
root 12.1789 10.0202 7.42253 -45.2974 -58.1427 11.2365
lowerback 43.8632 -1.78263 -5.42891
upperback 17.7655 -6.81666 -6.02591
thorax -0.795426 -4.27783 -1.18293
lowerneck 5.38243 -14.9034 -21.3266
upperneck 11.4614 -23.5961 21.2049
head 7.79858 -11.9209 8.2605
rclavicle 1.63003e-014 -3.02153e-014
rhumerus -34.6068 19.6447 -103.324
rradius 80.7677
rwrist 18.6746
rhand -28.1092 40.0794
rfingers 7.12502
rthumb -1.49138 10.1048
lclavicle 1.63003e-014 -3.02153e-014
lhumerus -47.6385 -0.596048 87.6051
lradius 67.7666
lwrist 32.3002
lhand -22.1078 53.5496
lfingers 7.12502
lthumb 4.30464 83.4859
rfemur -52.0418 -8.73657 -2.10714
rtibia 93.7314
rfoot -2.63295 17.9703
rtoes -8.17989
lfemur -48.6546 9.80961 -3.04705
ltibia 87.1279
lfoot -0.108805 -20.7436
ltoes -23.1293
231
root 12.2146 10.0436 7.4058 -45.8312 -57.5644 12.0958
lowerback 43.5185 -2.02655 -5.80104
upperback 17.7386 -7.22842 -6.20478
thorax -0.718255 -4.49022 -1.05311
lowerneck 5.4106 -14.8348 -21.2432
upperneck 11.11 -23.3969 21.0358
head 7.59899 -11.83 8.23018
rclavicle 8.38871e-014 5.56597e-015
rhumerus -35.0619 19.9679 -103.307
rradius 80.913
rwrist 17.7887
rhand -28.4409 40.3466
rfingers 7.12502
rthumb -1.81176 10.3746
lclavicle 8.38871e-014 5.56597e-015
lhumerus -47.7072 -0.643794 87.5325
lradius 67.7738
lwrist 32.5234
lhand -20.9958 53.4913
lfingers 7.12502
lthumb 5.37837 83.403
rfemur -52.2423 -9.17806 -2.98388
rtibia 93.5336
rfoot -1.87649 17.8601
rtoes -6.92254
lfemur -48.848 9.69688 -4.16635
ltibia 86.9178
lfoot 0.671512 -19.291
ltoes -19.5367
232
root 12.241 10.0482 7.4009 -46.4567 -56.8564 13.4907
lowerback 42.9915 -2.24901 -6.29311
upperback 17.5141 -7.638 -6.54568
thorax -0.819247 -4.67674 -1.02658
lowerneck 5.5019 -14.9012 -21.1215
upperneck 11.095 -23.4761 20.8704
head 7.55779 -11.8729 8.15031
rclavicle -6.75868e-015 -3.97569e-015
rhumerus -35.63 19.992 -103.359
rradius 81.1019
rwrist 16.8323
rhand -28.4242 40.5368
rfingers 7.12502
rthumb -1.79558 10.5646
lclavicle -6.75868e-015 -3.97569e-015
lhumerus -48.0073 -0.761329 87.4028
lradius 67.8878
lwrist 32.931
lhand -20.1108 52.9091
lfingers 7.12502
lthumb 6.23285 82.7974
rfemur -53.2868 -9.86913 -4.11097
rtibia 93.6342
rfoot -0.636172 19.2253
rtoes -0.39916
lfemur -49.5318 9.83813 -5.68584
ltibia 86.84
lfoot 1.05309 -18.162
ltoes -22.102
233
root 12.246 10.0381 7.37413 -45.0961 -57.9302 11.3597
lowerback 43.1437 -2.78343 -4.67298
upperback 17.6296 -7.66441 -6.34536
thorax -0.901441 -4.61301 -1.5946
lowerneck 5.74179 -15.2128 -20.7822
upperneck 10.9568 -23.9149 20.803
head 7.51898 -12.0892 8.01944
rclavicle 2.46493e-014 1.11319e-014
rhumerus -36.05 19.7582 -103.316
rradius 81.3637
rwrist 15.7974
rhand -28.4281 40.319
rfingers 7.12502
rthumb -1.79939 10.3468
lclavicle 2.46493e-014 1.11319e-014
lhumerus -48.0274 -1.06853 87.2306
lradius 67.8863
lwrist 33.365
lhand -20.1221 52.7539
lfingers 7.12502
lthumb 6.22196 82.6425
rfemur -53.0092 -9.68705 -2.17145
rtibia 93.6767
rfoot -0.390628 19.6884
rtoes 4.27075
lfemur -49.3818 10.4477 -4.05094
ltibia 86.9669
lfoot 0.958606 -17.3472
ltoes -23.1175
234
root 12.237 10.033 7.33366 -44.2381 -58.7204 9.75636
lowerback 43.1545 -2.92094 -3.69101
upperback 17.8733 -7.44329 -5.97989
thorax -0.685997 -4.48848 -1.79396
lowerneck 5.97736 -15.5325 -20.6414
upperneck 10.685 -24.3851 20.9855
head 7.50574 -12.3232 7.99232
rclavicle 2.94201e-014 -1.11319e-014
rhumerus -36.1463 19.3178 -103.004
rradius 81.4274
rwrist 14.5185
rhand -28.6174 40.8883
rfingers 7.12502
rthumb -1.98216 10.9177
lclavicle 2.94201e-014 -1.11319e-014
lhumerus -47.7257 -1.72526 87.3577
lradius 67.677
lwrist 33.5984
lhand -20.4951 53.1239
lfingers 7.12502
lthumb 5.86186 83.0228
rfemur -52.5331 -9.44992 -0.535817
rtibia 93.6836
rfoot -0.793502 19.3008
rtoes 5.06004
lfemur -49.0023 10.9742 -2.80638
ltibia 87.0542
lfoot 0.709077 -15.9609
ltoes -21.8368
235
root 12.2317 10.0281 7.30473 -44.4374 -58.6665 9.45952
lowerback 43.2414 -2.86512 -3.72312
upperback 17.9919 -7.38089 -5.62899
thorax -0.517872 -4.49442 -1.44334
lowerneck 6.14584 -15.6855 -20.6216
upperneck 10.3144 -24.5442 20.9491
head 7.386 -12.4112 7.96176
rclavicle 2.22639e-014 2.38542e-014
rhumerus -36.3552 19.2393 -102.429
rradius 81.6554
rwrist 12.7296
rhand -28.7616 42.1342
rfingers 7.12502
rthumb -2.12147 12.165
lclavicle 2.22639e-014 2.38542e-014
lhumerus -47.5417 -2.09397 87.8083
lradius 67.405
lwrist 33.2901
lhand -20.4152 53.4603
lfingers 7.12502
lthumb 5.93894 83.3571
rfemur -52.0987 -9.5729 -0.277182
rtibia 93.7693
rfoot -1.08778 19.1056
rtoes 4.2276
lfemur -48.527 10.8645 -2.71792
ltibia 87.0264
lfoot 0.710532 -14.5973
ltoes -17.5457
